# xmcd
#
# Track frame offsets: 
#        150
#        18965
#        28795
#        36975
#        47720
#        59925
#        71235
#        88560
#        110575
#        129820
#        140930
#        151265
#        169670
#        185340
#        202635
#        214535
#        227250
#        242980
#        261260
#        283520
#        296945
#        319375
#        330255
#
# Disc length: 4669 seconds
#
# Revision: 0
# Processed by: cddbd v1.5.2PL0 Copyright (c) Steve Scherf et al.
# Submitted via: ExactAudioCopy v0.95b4
#
DISCID=56123b17
DTITLE=Joy Division - Love. Fear. Isolation. The Unreleased Studio Rec
DTITLE=ordings
DYEAR=2008
DGENRE=Rock
TTITLE0=Shadowplay (Arrow Studios Manchester 03.-04.05.78)
TTITLE1=Interzone (Arrow Studios Manchester 03.-04.05.78)
TTITLE2=The Drawback (Arrow Studios Manchester 03.-04.05.78)
TTITLE3=Leaders Of Men (Arrow Studios Manchester 03.-04.05.78)
TTITLE4=They Walked In Line (Arrow Studios Manchester 03.-04.05.78)
TTITLE5=Failures (Arrow Studios Manchester 03.-04.05.78)
TTITLE6=Novelty (Arrow Studios Manchester 03.-04.05.78)
TTITLE7=No Love Lost (Arrow Studios Manchester 03.-04.05.78)
TTITLE8=Transmission (Arrow Studios Manchester 03.-04.05.78)
TTITLE9=Ice Age (Arrow Studios Manchester 03.-04.05.78)
TTITLE10=Warsaw (Arrow Studios Manchester 03.-04.05.78)
TTITLE11=Insight (Eden Studios London 04.03.79)
TTITLE12=Glass (Eden Studios London 04.03.79)
TTITLE13=Transmission II (Eden Studios London 04.03.79)
TTITLE14=Ice Age II (Eden Studios London 04.03.79)
TTITLE15=Something Must Break (Central Sound Studios Manchester 07.79)
TTITLE16=Transmission III (Central Sound Studios Manchester 07.79)
TTITLE17=Novelty II (Central Sound Studios Manchester 07.79)
TTITLE18=Dead Souls (Central Sound Studios Manchester 07.79)
TTITLE19=Love Will Tear Us Apart (Pen Sound Sts O 08.01.80, ws&doc)
TTITLE20=Dead Souls II (Co Sts Roce 10.-11.79, wrong)
TTITLE21=In A Lonely Place (TJ Der 28.04.80)
TTITLE22=Ceremony (TJ Davidson's Rehearsal Studios Manchester 28.04.80
TTITLE22=)
EXTD=
EXTT0=
EXTT1=
EXTT2=
EXTT3=
EXTT4=
EXTT5=
EXTT6=
EXTT7=
EXTT8=
EXTT9=
EXTT10=
EXTT11=
EXTT12=
EXTT13=
EXTT14=
EXTT15=
EXTT16=
EXTT17=
EXTT18=
EXTT19=
EXTT20=
EXTT21=
EXTT22=
PLAYORDER=
